<svg preserveAspectRatio="none" width="100%" height="100%" overflow="visible" style="display: block;" viewBox="0 0 26.6667 36.4556" fill="none" xmlns="http://www.w3.org/2000/svg">
<g id="Margin">
<path id="Icon" d="M13.3333 24.4556L11.5889 22.8889C9.3074 20.8222 7.42221 19.0389 5.93333 17.5389C4.44444 16.0389 3.25926 14.6944 2.37777 13.5056C1.49629 12.3167 0.879628 11.2296 0.527777 10.2444C0.175926 9.25926 0 8.25556 0 7.23334C0 5.17408 0.690741 3.45371 2.07222 2.07222C3.45371 0.690742 5.17037 0 7.22223 0C8.41482 0 9.53889 0.262962 10.5944 0.788885C11.65 1.31481 12.563 2.06295 13.3333 3.03332C14.1481 2.04073 15.0778 1.28703 16.1222 0.772221C17.1667 0.257407 18.2741 0 19.4444 0C21.4963 0 23.213 0.690742 24.5944 2.07222C25.9759 3.45371 26.6667 5.17408 26.6667 7.23334C26.6667 8.25556 26.4907 9.25926 26.1389 10.2444C25.787 11.2296 25.1704 12.3167 24.2889 13.5056C23.4074 14.6944 22.2222 16.0389 20.7333 17.5389C19.2445 19.0389 17.3593 20.8222 15.0778 22.8889L13.3333 24.4556V24.4556" fill="var(--fill-0, #EF4444)"/>
</g>
</svg>
