<svg preserveAspectRatio="none" width="100%" height="100%" overflow="visible" style="display: block;" viewBox="0 0 26.6667 38.6667" fill="none" xmlns="http://www.w3.org/2000/svg">
<g id="Margin">
<path id="Icon" d="M5.86667 21.3333H8.66667L10.1333 17.2667H16.5333L18 21.3333H20.8L14.7333 5.33333H11.9333L5.86667 21.3333V21.3333M10.9333 14.9333L13.2667 8.33333H13.4L15.7333 14.9333H10.9333V14.9333M2.66667 26.6667C1.93333 26.6667 1.30556 26.4056 0.783333 25.8833C0.261111 25.3611 0 24.7333 0 24V2.66667C0 1.93333 0.261111 1.30556 0.783333 0.783333C1.30556 0.261111 1.93333 0 2.66667 0H24C24.7333 0 25.3611 0.261111 25.8833 0.783333C26.4056 1.30556 26.6667 1.93333 26.6667 2.66667V24C26.6667 24.7333 26.4056 25.3611 25.8833 25.8833C25.3611 26.4056 24.7333 26.6667 24 26.6667H2.66667V26.6667M2.66667 24H24V24V24V2.66667V2.66667V2.66667H2.66667V2.66667V2.66667V24V24V24V24M2.66667 2.66667V2.66667V2.66667V2.66667V24V24V24V24V24V24V2.66667V2.66667V2.66667V2.66667" fill="var(--fill-0, white)"/>
</g>
</svg>
